<mxfile host="app.diagrams.net" agent="Mozilla/5.0 (X11; Linux x86_64) AppleWebKit/537.36 (KHTML, like Gecko) Chrome/134.0.0.0 Safari/537.36" version="26.2.8">
  <diagram name="Page-1" id="pfNK1KoHYIdVEEHbpxd6">
    <mxGraphModel dx="7063" dy="2410" grid="1" gridSize="10" guides="1" tooltips="1" connect="1" arrows="1" fold="1" page="1" pageScale="1" pageWidth="850" pageHeight="1100" math="0" shadow="0">
      <root>
        <mxCell id="0" />
        <mxCell id="1" parent="0" />
        <mxCell id="nxcy-xcBoZWc85Fxpx_w-1" value="" style="rounded=0;whiteSpace=wrap;html=1;shadow=0;labelBackgroundColor=none;strokeColor=none;strokeWidth=3;fillColor=#e8edf0;fontSize=60;fontColor=#2F5B7C;align=left;" vertex="1" parent="1">
          <mxGeometry x="-2550" width="2250" height="1598" as="geometry" />
        </mxCell>
        <mxCell id="nxcy-xcBoZWc85Fxpx_w-2" value="&lt;div style=&quot;font-size: 26px&quot;&gt;&lt;font style=&quot;font-size: 26px&quot;&gt;Customer Relationships&lt;/font&gt;&lt;/div&gt;&lt;div&gt;&lt;br&gt;&lt;/div&gt;&lt;div&gt;What type of relationship does each of our Customer&lt;/div&gt;&lt;div&gt;Segments expect us to establish and maintain with them?&lt;/div&gt;&lt;div&gt;Which ones have we established?&lt;/div&gt;&lt;div&gt;How are they integrated with the rest of our business model?&lt;/div&gt;&lt;div&gt;How costly are they?&lt;/div&gt;&lt;div&gt;&lt;br&gt;&lt;/div&gt;&lt;div style=&quot;font-size: 10px&quot;&gt;&lt;font style=&quot;font-size: 10px&quot;&gt;&lt;b&gt;Examples&lt;/b&gt;&lt;/font&gt;&lt;/div&gt;&lt;div style=&quot;font-size: 10px&quot;&gt;&lt;font style=&quot;font-size: 10px&quot;&gt;Personal assistance&lt;/font&gt;&lt;/div&gt;&lt;div style=&quot;font-size: 10px&quot;&gt;&lt;font style=&quot;font-size: 10px&quot;&gt;Dedicated Personal Assistance&lt;/font&gt;&lt;/div&gt;&lt;div style=&quot;font-size: 10px&quot;&gt;&lt;font style=&quot;font-size: 10px&quot;&gt;Self-Service&lt;/font&gt;&lt;/div&gt;&lt;div style=&quot;font-size: 10px&quot;&gt;&lt;font style=&quot;font-size: 10px&quot;&gt;Automated Services&lt;/font&gt;&lt;/div&gt;&lt;div style=&quot;font-size: 10px&quot;&gt;&lt;font style=&quot;font-size: 10px&quot;&gt;Communities&lt;/font&gt;&lt;/div&gt;&lt;div style=&quot;font-size: 10px&quot;&gt;&lt;font style=&quot;font-size: 10px&quot;&gt;Co-creation&lt;/font&gt;&lt;/div&gt;" style="rounded=0;whiteSpace=wrap;html=1;shadow=0;labelBackgroundColor=none;strokeColor=#e8edf0;strokeWidth=5;fillColor=#ffffff;fontSize=12;fontColor=#2F5B7C;align=left;verticalAlign=top;spacing=30;" vertex="1" parent="1">
          <mxGeometry x="-1220" y="210" width="420" height="450" as="geometry" />
        </mxCell>
        <mxCell id="nxcy-xcBoZWc85Fxpx_w-3" value="&lt;font&gt;&lt;font style=&quot;font-size: 26px&quot;&gt;Key Partners&lt;/font&gt;&lt;br&gt;&lt;/font&gt;&lt;font style=&quot;font-size: 12px&quot;&gt;&lt;br style=&quot;font-size: 12px&quot;&gt;&lt;font style=&quot;font-size: 12px&quot;&gt;Who are our Key Partners?&lt;br style=&quot;font-size: 12px&quot;&gt;Who are our Key Suppliers?&lt;br style=&quot;font-size: 12px&quot;&gt;Which Key Resources are we acquiring from partners?&lt;br style=&quot;font-size: 12px&quot;&gt;&lt;/font&gt;&lt;br style=&quot;font-size: 12px&quot;&gt;&lt;/font&gt;&lt;div style=&quot;font-size: 10px&quot;&gt;&lt;font style=&quot;font-size: 10px&quot;&gt;&lt;b&gt;Motivations for partnerships&lt;/b&gt;&lt;/font&gt;&lt;/div&gt;&lt;div style=&quot;font-size: 10px&quot;&gt;&lt;font style=&quot;font-size: 10px&quot;&gt;Optimization and economy&lt;/font&gt;&lt;/div&gt;&lt;div style=&quot;font-size: 10px&quot;&gt;&lt;font style=&quot;font-size: 10px&quot;&gt;Reduction of risk and uncertainty&lt;/font&gt;&lt;/div&gt;&lt;div style=&quot;font-size: 10px&quot;&gt;&lt;font style=&quot;font-size: 10px&quot;&gt;Acquisition of particular resources and activities&lt;/font&gt;&lt;/div&gt;&lt;div style=&quot;font-size: 12px&quot;&gt;&lt;br style=&quot;font-size: 12px&quot;&gt;&lt;/div&gt;" style="rounded=0;whiteSpace=wrap;html=1;shadow=0;labelBackgroundColor=none;strokeColor=#e8edf0;strokeWidth=5;fillColor=#ffffff;fontSize=12;fontColor=#2F5B7C;align=left;verticalAlign=top;spacing=30;" vertex="1" parent="1">
          <mxGeometry x="-2480" y="210" width="420" height="900" as="geometry" />
        </mxCell>
        <mxCell id="nxcy-xcBoZWc85Fxpx_w-4" value="&lt;font&gt;&lt;font style=&quot;font-size: 26px&quot;&gt;Key Activities&lt;/font&gt;&lt;br style=&quot;font-size: 12px&quot;&gt;&lt;/font&gt;&lt;font&gt;&lt;br style=&quot;font-size: 12px&quot;&gt;&lt;div&gt;What Key Activities do our Value Propositions require?&lt;/div&gt;&lt;div&gt;Our Distribution Channels?&lt;/div&gt;&lt;div&gt;Customer Relationships?&lt;/div&gt;&lt;div&gt;Revenue streams?&lt;/div&gt;&lt;div&gt;&lt;br&gt;&lt;/div&gt;&lt;/font&gt;&lt;div style=&quot;font-size: 10px&quot;&gt;&lt;div&gt;&lt;b&gt;Categories&lt;/b&gt;&lt;/div&gt;&lt;div&gt;Production&lt;/div&gt;&lt;div&gt;Problem Solving&lt;/div&gt;&lt;div&gt;Platform/Network&lt;/div&gt;&lt;/div&gt;&lt;div&gt;&lt;br&gt;&lt;/div&gt;" style="rounded=0;whiteSpace=wrap;html=1;shadow=0;labelBackgroundColor=none;strokeColor=#e8edf0;strokeWidth=5;fillColor=#ffffff;fontSize=12;fontColor=#2F5B7C;align=left;verticalAlign=top;spacing=30;" vertex="1" parent="1">
          <mxGeometry x="-2060" y="210" width="420" height="450" as="geometry" />
        </mxCell>
        <mxCell id="nxcy-xcBoZWc85Fxpx_w-5" value="&lt;div&gt;&lt;font style=&quot;font-size: 26px&quot;&gt;Key Resources&lt;/font&gt;&lt;/div&gt;&lt;div&gt;&lt;br&gt;&lt;/div&gt;&lt;div&gt;What Key Resources do our Value Propositions require?&lt;/div&gt;&lt;div&gt;Our Distribution Channels? Customer Relationships?&lt;/div&gt;&lt;div&gt;Revenue Streams?&lt;/div&gt;&lt;div&gt;&lt;br&gt;&lt;/div&gt;&lt;div style=&quot;font-size: 10px&quot;&gt;&lt;font style=&quot;font-size: 10px&quot;&gt;&lt;b&gt;Types of resources&lt;/b&gt;&lt;/font&gt;&lt;/div&gt;&lt;div style=&quot;font-size: 10px&quot;&gt;&lt;font style=&quot;font-size: 10px&quot;&gt;Physical&lt;/font&gt;&lt;/div&gt;&lt;div style=&quot;font-size: 10px&quot;&gt;&lt;font style=&quot;font-size: 10px&quot;&gt;Intellectual (brand patents, copyrights, data)&lt;/font&gt;&lt;/div&gt;&lt;div style=&quot;font-size: 10px&quot;&gt;&lt;font style=&quot;font-size: 10px&quot;&gt;Human&lt;/font&gt;&lt;/div&gt;&lt;div style=&quot;font-size: 10px&quot;&gt;&lt;font style=&quot;font-size: 10px&quot;&gt;Financial&lt;/font&gt;&lt;/div&gt;" style="rounded=0;whiteSpace=wrap;html=1;shadow=0;labelBackgroundColor=none;strokeColor=#e8edf0;strokeWidth=5;fillColor=#ffffff;fontSize=12;fontColor=#2F5B7C;align=left;verticalAlign=top;spacing=30;" vertex="1" parent="1">
          <mxGeometry x="-2060" y="660" width="420" height="450" as="geometry" />
        </mxCell>
        <mxCell id="nxcy-xcBoZWc85Fxpx_w-6" value="&lt;div style=&quot;font-size: 26px&quot;&gt;&lt;font style=&quot;font-size: 26px&quot;&gt;Value Propositions&lt;/font&gt;&lt;/div&gt;&lt;div&gt;&lt;br&gt;&lt;/div&gt;&lt;div&gt;What value do we deliver to the customer?&lt;/div&gt;&lt;div&gt;Which one of our customer’s problems are we helping to solve?&lt;/div&gt;&lt;div&gt;What bundles of products and services are we offering to each Customer Segment?&lt;/div&gt;&lt;div&gt;Which customer needs are we satisfying?&lt;/div&gt;&lt;div&gt;&lt;br&gt;&lt;/div&gt;&lt;div style=&quot;font-size: 10px&quot;&gt;&lt;font style=&quot;font-size: 10px&quot;&gt;&lt;b&gt;Characteristics&lt;/b&gt;&lt;/font&gt;&lt;/div&gt;&lt;div style=&quot;font-size: 10px&quot;&gt;&lt;font style=&quot;font-size: 10px&quot;&gt;Newness&lt;/font&gt;&lt;/div&gt;&lt;div style=&quot;font-size: 10px&quot;&gt;&lt;font style=&quot;font-size: 10px&quot;&gt;Performance&lt;/font&gt;&lt;/div&gt;&lt;div style=&quot;font-size: 10px&quot;&gt;&lt;font style=&quot;font-size: 10px&quot;&gt;Customization&lt;/font&gt;&lt;/div&gt;&lt;div style=&quot;font-size: 10px&quot;&gt;&lt;font style=&quot;font-size: 10px&quot;&gt;“Getting the Job Done”&lt;/font&gt;&lt;/div&gt;&lt;div style=&quot;font-size: 10px&quot;&gt;&lt;font style=&quot;font-size: 10px&quot;&gt;Design&lt;/font&gt;&lt;/div&gt;&lt;div style=&quot;font-size: 10px&quot;&gt;&lt;font style=&quot;font-size: 10px&quot;&gt;Brand/Status&lt;/font&gt;&lt;/div&gt;&lt;div style=&quot;font-size: 10px&quot;&gt;&lt;font style=&quot;font-size: 10px&quot;&gt;Price&lt;/font&gt;&lt;/div&gt;&lt;div style=&quot;font-size: 10px&quot;&gt;&lt;font style=&quot;font-size: 10px&quot;&gt;Cost Reduction&lt;/font&gt;&lt;/div&gt;&lt;div style=&quot;font-size: 10px&quot;&gt;&lt;font style=&quot;font-size: 10px&quot;&gt;Risk Reduction&lt;/font&gt;&lt;/div&gt;&lt;div style=&quot;font-size: 10px&quot;&gt;&lt;font style=&quot;font-size: 10px&quot;&gt;Accessibility&lt;/font&gt;&lt;/div&gt;&lt;div style=&quot;font-size: 10px&quot;&gt;&lt;font style=&quot;font-size: 10px&quot;&gt;Convenience/Usability&lt;/font&gt;&lt;/div&gt;&lt;div style=&quot;font-size: 10px&quot;&gt;&lt;br&gt;&lt;/div&gt;" style="rounded=0;whiteSpace=wrap;html=1;shadow=0;labelBackgroundColor=none;strokeColor=#e8edf0;strokeWidth=5;fillColor=#ffffff;fontSize=12;fontColor=#2F5B7C;align=left;verticalAlign=top;spacing=30;" vertex="1" parent="1">
          <mxGeometry x="-1640" y="210" width="420" height="900" as="geometry" />
        </mxCell>
        <mxCell id="nxcy-xcBoZWc85Fxpx_w-7" value="&lt;div&gt;&lt;font style=&quot;font-size: 26px&quot;&gt;Customer Segments&lt;/font&gt;&lt;/div&gt;&lt;div&gt;&lt;br&gt;&lt;/div&gt;&lt;div&gt;For whom are we creating value?&lt;/div&gt;&lt;div&gt;Who are our most important customers?&lt;/div&gt;&lt;div&gt;&lt;br&gt;&lt;/div&gt;&lt;div style=&quot;font-size: 10px&quot;&gt;&lt;font style=&quot;font-size: 10px&quot;&gt;Mass Market&lt;/font&gt;&lt;/div&gt;&lt;div style=&quot;font-size: 10px&quot;&gt;&lt;font style=&quot;font-size: 10px&quot;&gt;Niche Market&lt;/font&gt;&lt;/div&gt;&lt;div style=&quot;font-size: 10px&quot;&gt;&lt;font style=&quot;font-size: 10px&quot;&gt;Segmented&lt;/font&gt;&lt;/div&gt;&lt;div style=&quot;font-size: 10px&quot;&gt;&lt;font style=&quot;font-size: 10px&quot;&gt;Diversified&lt;/font&gt;&lt;/div&gt;&lt;div style=&quot;font-size: 10px&quot;&gt;&lt;font style=&quot;font-size: 10px&quot;&gt;Multi-sided Platform&lt;/font&gt;&lt;/div&gt;" style="rounded=0;whiteSpace=wrap;html=1;shadow=0;labelBackgroundColor=none;strokeColor=#e8edf0;strokeWidth=5;fillColor=#ffffff;fontSize=12;fontColor=#2F5B7C;align=left;verticalAlign=top;spacing=30;" vertex="1" parent="1">
          <mxGeometry x="-800" y="210" width="420" height="900" as="geometry" />
        </mxCell>
        <mxCell id="nxcy-xcBoZWc85Fxpx_w-8" value="&lt;div&gt;&lt;font style=&quot;font-size: 26px&quot;&gt;Channels&lt;/font&gt;&lt;/div&gt;&lt;div&gt;&lt;br&gt;&lt;/div&gt;&lt;div&gt;Through which Channels do our Customer Segments&lt;/div&gt;&lt;div&gt;want to be reached?&lt;/div&gt;&lt;div&gt;How are we reaching them now?&lt;/div&gt;&lt;div&gt;How are our Channels integrated?&lt;/div&gt;&lt;div&gt;Which ones work best?&lt;/div&gt;&lt;div&gt;Which ones are most cost-efficient?&lt;/div&gt;&lt;div&gt;How are we integrating them with customer routines?&lt;/div&gt;&lt;div&gt;&lt;br&gt;&lt;/div&gt;&lt;div style=&quot;font-size: 10px&quot;&gt;&lt;font style=&quot;font-size: 10px&quot;&gt;&lt;b&gt;Channel phases&lt;/b&gt;&lt;/font&gt;&lt;/div&gt;&lt;div style=&quot;font-size: 10px&quot;&gt;&lt;font style=&quot;font-size: 10px&quot;&gt;1. Awareness&lt;/font&gt;&lt;/div&gt;&lt;div style=&quot;font-size: 10px&quot;&gt;&lt;font style=&quot;font-size: 10px&quot;&gt;&amp;nbsp; &amp;nbsp; How do we raise awareness about our company’s products and services?&lt;/font&gt;&lt;/div&gt;&lt;div style=&quot;font-size: 10px&quot;&gt;&lt;font style=&quot;font-size: 10px&quot;&gt;2. Evaluation&lt;/font&gt;&lt;/div&gt;&lt;div style=&quot;font-size: 10px&quot;&gt;&lt;font style=&quot;font-size: 10px&quot;&gt;&amp;nbsp; &amp;nbsp; How do we help customers evaluate our organization’s Value Proposition?&lt;/font&gt;&lt;/div&gt;&lt;div style=&quot;font-size: 10px&quot;&gt;&lt;font style=&quot;font-size: 10px&quot;&gt;3. Purchase&lt;/font&gt;&lt;/div&gt;&lt;div style=&quot;font-size: 10px&quot;&gt;&lt;font style=&quot;font-size: 10px&quot;&gt;&amp;nbsp; &amp;nbsp; How do we allow customers to purchase specific products and services?&lt;/font&gt;&lt;/div&gt;&lt;div style=&quot;font-size: 10px&quot;&gt;&lt;font style=&quot;font-size: 10px&quot;&gt;4. Delivery&lt;/font&gt;&lt;/div&gt;&lt;div style=&quot;font-size: 10px&quot;&gt;&lt;font style=&quot;font-size: 10px&quot;&gt;&amp;nbsp; &amp;nbsp; How do we deliver a Value Proposition to customers?&lt;/font&gt;&lt;/div&gt;&lt;div style=&quot;font-size: 10px&quot;&gt;&lt;font style=&quot;font-size: 10px&quot;&gt;5. After sales&lt;/font&gt;&lt;/div&gt;&lt;div style=&quot;font-size: 10px&quot;&gt;&lt;font style=&quot;font-size: 10px&quot;&gt;&amp;nbsp; &amp;nbsp; How do we provide post-purchase customer support?&lt;/font&gt;&lt;/div&gt;&lt;div style=&quot;font-size: 10px&quot;&gt;&lt;br&gt;&lt;/div&gt;" style="rounded=0;whiteSpace=wrap;html=1;shadow=0;labelBackgroundColor=none;strokeColor=#e8edf0;strokeWidth=5;fillColor=#ffffff;fontSize=12;fontColor=#2F5B7C;align=left;verticalAlign=top;spacing=30;" vertex="1" parent="1">
          <mxGeometry x="-1220" y="660" width="420" height="450" as="geometry" />
        </mxCell>
        <mxCell id="nxcy-xcBoZWc85Fxpx_w-9" value="&lt;div style=&quot;font-size: 26px&quot;&gt;&lt;font style=&quot;font-size: 26px&quot;&gt;Cost Structure&lt;/font&gt;&lt;/div&gt;&lt;div&gt;&lt;br&gt;&lt;/div&gt;&lt;div&gt;What are the most important costs inherent in our business model?&lt;/div&gt;&lt;div&gt;Which Key Resources are most expensive?&lt;/div&gt;&lt;div&gt;Which Key Activities are most expensive?&lt;/div&gt;&lt;div&gt;&lt;br&gt;&lt;/div&gt;&lt;div style=&quot;font-size: 10px&quot;&gt;&lt;font style=&quot;font-size: 10px&quot;&gt;&lt;b&gt;Is your business more&lt;/b&gt;&lt;/font&gt;&lt;/div&gt;&lt;div style=&quot;font-size: 10px&quot;&gt;&lt;font style=&quot;font-size: 10px&quot;&gt;Cost Driven (leanest cost structure, low price value proposition, maximum automation, extensive outsourcing)&lt;/font&gt;&lt;/div&gt;&lt;div style=&quot;font-size: 10px&quot;&gt;&lt;font style=&quot;font-size: 10px&quot;&gt;Value Driven ( focused on value creation, premium value proposition)&lt;/font&gt;&lt;/div&gt;&lt;div style=&quot;font-size: 10px&quot;&gt;&lt;font style=&quot;font-size: 10px&quot;&gt;&lt;br&gt;&lt;/font&gt;&lt;/div&gt;&lt;div style=&quot;font-size: 10px&quot;&gt;&lt;font style=&quot;font-size: 10px&quot;&gt;&lt;b&gt;Sample characteristics&lt;/b&gt;&lt;/font&gt;&lt;/div&gt;&lt;div style=&quot;font-size: 10px&quot;&gt;&lt;font style=&quot;font-size: 10px&quot;&gt;Fixed Costs (salaries, rents, utilities)&lt;/font&gt;&lt;/div&gt;&lt;div style=&quot;font-size: 10px&quot;&gt;&lt;font style=&quot;font-size: 10px&quot;&gt;Variable costs&lt;/font&gt;&lt;/div&gt;&lt;div style=&quot;font-size: 10px&quot;&gt;&lt;font style=&quot;font-size: 10px&quot;&gt;Economies of scale&lt;/font&gt;&lt;/div&gt;&lt;div style=&quot;font-size: 10px&quot;&gt;&lt;font style=&quot;font-size: 10px&quot;&gt;Economies of scope&lt;/font&gt;&lt;/div&gt;" style="rounded=0;whiteSpace=wrap;html=1;shadow=0;labelBackgroundColor=none;strokeColor=#e8edf0;strokeWidth=5;fillColor=#ffffff;fontSize=12;fontColor=#2F5B7C;align=left;verticalAlign=top;spacing=30;" vertex="1" parent="1">
          <mxGeometry x="-2480" y="1110" width="1050" height="330" as="geometry" />
        </mxCell>
        <mxCell id="nxcy-xcBoZWc85Fxpx_w-10" value="&lt;div style=&quot;font-size: 26px&quot;&gt;&lt;font style=&quot;font-size: 26px&quot;&gt;Revenue Streams&lt;/font&gt;&lt;/div&gt;&lt;div&gt;&lt;br&gt;&lt;/div&gt;&lt;div&gt;For what value are our customers really willing to pay?&lt;/div&gt;&lt;div&gt;For what do they currently pay?&lt;/div&gt;&lt;div&gt;How are they currently paying?&lt;/div&gt;&lt;div&gt;How would they prefer to pay?&lt;/div&gt;&lt;div&gt;How much does each Revenue Stream contribute to overall revenues?&lt;/div&gt;" style="rounded=0;whiteSpace=wrap;html=1;shadow=0;labelBackgroundColor=none;strokeColor=#e8edf0;strokeWidth=5;fillColor=#ffffff;fontSize=12;fontColor=#2F5B7C;align=left;verticalAlign=top;spacing=30;" vertex="1" parent="1">
          <mxGeometry x="-1430" y="1110" width="1050" height="330" as="geometry" />
        </mxCell>
        <mxCell id="nxcy-xcBoZWc85Fxpx_w-11" value="The Business Model Canvas&lt;br&gt;" style="text;html=1;resizable=0;points=[];autosize=1;align=left;verticalAlign=top;spacingTop=-4;fontSize=60;fontColor=#2F5B7C;" vertex="1" parent="1">
          <mxGeometry x="-2480" y="100" width="780" height="70" as="geometry" />
        </mxCell>
        <mxCell id="nxcy-xcBoZWc85Fxpx_w-12" value="" style="html=1;verticalLabelPosition=bottom;labelBackgroundColor=#ffffff;verticalAlign=top;shadow=0;dashed=0;strokeWidth=4;shape=mxgraph.ios7.misc.check;strokeColor=#2F5B7C;fillColor=#ffffff;gradientColor=none;fontSize=12;fontColor=#2F5B7C;align=left;" vertex="1" parent="1">
          <mxGeometry x="-1680" y="242" width="20" height="16" as="geometry" />
        </mxCell>
        <mxCell id="nxcy-xcBoZWc85Fxpx_w-13" value="" style="shape=mxgraph.signs.travel.present;html=1;fillColor=#2F5B7C;strokeColor=none;verticalLabelPosition=bottom;verticalAlign=top;align=center;shadow=0;labelBackgroundColor=none;fontSize=12;fontColor=#2F5B7C;" vertex="1" parent="1">
          <mxGeometry x="-1270" y="225" width="31" height="40" as="geometry" />
        </mxCell>
        <mxCell id="nxcy-xcBoZWc85Fxpx_w-14" value="" style="html=1;verticalLabelPosition=bottom;labelBackgroundColor=#ffffff;verticalAlign=top;strokeWidth=3;strokeColor=none;fillColor=#2F5B7C;shadow=0;dashed=0;shape=mxgraph.ios7.icons.heart;fontSize=12;fontColor=#2F5B7C;align=left;" vertex="1" parent="1">
          <mxGeometry x="-864.9999999999997" y="232" width="41" height="36" as="geometry" />
        </mxCell>
        <mxCell id="nxcy-xcBoZWc85Fxpx_w-15" value="&lt;div style=&quot;font-size: 10px&quot;&gt;&lt;b&gt;Dynamic pricing&lt;/b&gt;&lt;/div&gt;&lt;div style=&quot;font-size: 10px&quot;&gt;Negotiation( bargaining)&lt;/div&gt;&lt;div style=&quot;font-size: 10px&quot;&gt;Yield Management&lt;/div&gt;&lt;div style=&quot;font-size: 10px&quot;&gt;Real-time-Market&lt;/div&gt;" style="text;html=1;resizable=0;points=[];autosize=1;align=left;verticalAlign=top;spacingTop=-4;fontSize=10;fontColor=#2F5B7C;" vertex="1" parent="1">
          <mxGeometry x="-1075.5" y="1276" width="120" height="50" as="geometry" />
        </mxCell>
        <mxCell id="nxcy-xcBoZWc85Fxpx_w-16" value="&lt;div style=&quot;font-size: 10px&quot;&gt;&lt;b&gt;Fixed pricing&lt;/b&gt;&lt;/div&gt;&lt;div style=&quot;font-size: 10px&quot;&gt;List Price&lt;/div&gt;&lt;div style=&quot;font-size: 10px&quot;&gt;Product feature dependent&lt;/div&gt;&lt;div style=&quot;font-size: 10px&quot;&gt;Customer segment dependent&lt;/div&gt;&lt;div style=&quot;font-size: 10px&quot;&gt;Volume dependent&lt;/div&gt;" style="text;html=1;resizable=0;points=[];autosize=1;align=left;verticalAlign=top;spacingTop=-4;fontSize=10;fontColor=#2F5B7C;" vertex="1" parent="1">
          <mxGeometry x="-1254.5" y="1276" width="150" height="60" as="geometry" />
        </mxCell>
        <mxCell id="nxcy-xcBoZWc85Fxpx_w-17" value="&lt;div style=&quot;font-size: 10px&quot;&gt;&lt;b&gt;Types&lt;/b&gt;&lt;/div&gt;&lt;div style=&quot;font-size: 10px&quot;&gt;Asset sale&lt;/div&gt;&lt;div style=&quot;font-size: 10px&quot;&gt;Usage fee&lt;/div&gt;&lt;div style=&quot;font-size: 10px&quot;&gt;Subscription Fees&lt;/div&gt;&lt;div style=&quot;font-size: 10px&quot;&gt;Lending/Renting/Leasing&lt;/div&gt;&lt;div style=&quot;font-size: 10px&quot;&gt;Licensing&lt;/div&gt;&lt;div style=&quot;font-size: 10px&quot;&gt;Brokerage fees&lt;/div&gt;&lt;div style=&quot;font-size: 10px&quot;&gt;Advertising&lt;/div&gt;" style="text;html=1;resizable=0;points=[];autosize=1;align=left;verticalAlign=top;spacingTop=-4;fontSize=10;fontColor=#2F5B7C;" vertex="1" parent="1">
          <mxGeometry x="-1400" y="1276" width="130" height="100" as="geometry" />
        </mxCell>
        <mxCell id="nxcy-xcBoZWc85Fxpx_w-18" value="" style="shadow=0;dashed=0;html=1;strokeColor=none;labelPosition=center;verticalLabelPosition=bottom;verticalAlign=top;shape=mxgraph.mscae.cloud.data_factory;fillColor=#2F5B7C;labelBackgroundColor=none;fontSize=10;fontColor=#2F5B7C;align=left;" vertex="1" parent="1">
          <mxGeometry x="-1710" y="680" width="50" height="50" as="geometry" />
        </mxCell>
        <mxCell id="nxcy-xcBoZWc85Fxpx_w-19" value="" style="shape=mxgraph.signs.transportation.truck_6;html=1;fillColor=#2F5B7C;strokeColor=none;verticalLabelPosition=bottom;verticalAlign=top;align=center;shadow=0;labelBackgroundColor=none;fontSize=10;fontColor=#2F5B7C;aspect=fixed;" vertex="1" parent="1">
          <mxGeometry x="-860" y="680" width="40" height="50" as="geometry" />
        </mxCell>
        <mxCell id="nxcy-xcBoZWc85Fxpx_w-20" value="" style="shape=image;html=1;verticalAlign=top;verticalLabelPosition=bottom;labelBackgroundColor=#ffffff;imageAspect=0;aspect=fixed;image=https://cdn4.iconfinder.com/data/icons/evil-icons-user-interface/64/price-128.png;shadow=0;strokeColor=#e8edf0;strokeWidth=3;fillColor=#2F5B7C;gradientColor=none;fontSize=10;fontColor=#2F5B7C;align=left;" vertex="1" parent="1">
          <mxGeometry x="-1496" y="1130" width="58" height="58" as="geometry" />
        </mxCell>
        <mxCell id="nxcy-xcBoZWc85Fxpx_w-21" value="" style="dashed=0;html=1;shape=mxgraph.aws3.checklist_cost;fillColor=#2F5B7C;gradientColor=none;shadow=0;labelBackgroundColor=none;strokeColor=none;strokeWidth=3;fontSize=10;fontColor=#2F5B7C;align=left;" vertex="1" parent="1">
          <mxGeometry x="-473.5" y="1121.5" width="67.5" height="75" as="geometry" />
        </mxCell>
        <mxCell id="nxcy-xcBoZWc85Fxpx_w-22" value="" style="shadow=0;dashed=0;html=1;strokeColor=none;fillColor=#2F5B7C;labelPosition=center;verticalLabelPosition=bottom;verticalAlign=top;outlineConnect=0;shape=mxgraph.office.concepts.link;labelBackgroundColor=none;fontSize=10;fontColor=#000000;align=left;" vertex="1" parent="1">
          <mxGeometry x="-2141" y="231" width="61" height="21" as="geometry" />
        </mxCell>
        <mxCell id="nxcy-xcBoZWc85Fxpx_w-23" value="" style="group" vertex="1" connectable="0" parent="1">
          <mxGeometry x="-473.5" y="235" width="69" height="50" as="geometry" />
        </mxCell>
        <mxCell id="nxcy-xcBoZWc85Fxpx_w-24" value="" style="shadow=0;dashed=0;html=1;strokeColor=#FFFFFF;labelPosition=center;verticalLabelPosition=bottom;verticalAlign=top;outlineConnect=0;shape=mxgraph.office.users.user;fillColor=#2F5B7C;labelBackgroundColor=none;fontSize=10;fontColor=#000000;align=left;strokeWidth=2;" vertex="1" parent="nxcy-xcBoZWc85Fxpx_w-23">
          <mxGeometry x="31" y="-5" width="46" height="50" as="geometry" />
        </mxCell>
        <mxCell id="nxcy-xcBoZWc85Fxpx_w-25" value="" style="shadow=0;dashed=0;html=1;strokeColor=#FFFFFF;labelPosition=center;verticalLabelPosition=bottom;verticalAlign=top;outlineConnect=0;shape=mxgraph.office.users.user;fillColor=#2F5B7C;labelBackgroundColor=none;fontSize=10;fontColor=#000000;align=left;strokeWidth=2;" vertex="1" parent="nxcy-xcBoZWc85Fxpx_w-23">
          <mxGeometry width="46" height="50" as="geometry" />
        </mxCell>
        <mxCell id="nxcy-xcBoZWc85Fxpx_w-26" value="lokale Handwerker" style="rounded=0;whiteSpace=wrap;html=1;fillColor=#dae8fc;strokeColor=#6c8ebf;" vertex="1" parent="1">
          <mxGeometry x="-2440" y="430" width="120" height="60" as="geometry" />
        </mxCell>
        <mxCell id="nxcy-xcBoZWc85Fxpx_w-27" value="Server Provider" style="rounded=0;whiteSpace=wrap;html=1;fillColor=#dae8fc;strokeColor=#6c8ebf;" vertex="1" parent="1">
          <mxGeometry x="-2300" y="430" width="120" height="60" as="geometry" />
        </mxCell>
        <mxCell id="nxcy-xcBoZWc85Fxpx_w-28" value="Handwerk" style="rounded=0;whiteSpace=wrap;html=1;fillColor=#dae8fc;strokeColor=#6c8ebf;" vertex="1" parent="1">
          <mxGeometry x="-2023" y="430" width="120" height="60" as="geometry" />
        </mxCell>
        <mxCell id="nxcy-xcBoZWc85Fxpx_w-29" value="Rechenleistung" style="rounded=0;whiteSpace=wrap;html=1;fillColor=#dae8fc;strokeColor=#6c8ebf;" vertex="1" parent="1">
          <mxGeometry x="-2020" y="920" width="120" height="60" as="geometry" />
        </mxCell>
        <mxCell id="nxcy-xcBoZWc85Fxpx_w-30" value="Speicherplatz" style="rounded=0;whiteSpace=wrap;html=1;fillColor=#dae8fc;strokeColor=#6c8ebf;" vertex="1" parent="1">
          <mxGeometry x="-1880" y="920" width="120" height="60" as="geometry" />
        </mxCell>
        <mxCell id="nxcy-xcBoZWc85Fxpx_w-31" value="Software Entwicklung" style="rounded=0;whiteSpace=wrap;html=1;fillColor=#dae8fc;strokeColor=#6c8ebf;" vertex="1" parent="1">
          <mxGeometry x="-1600" y="560" width="120" height="60" as="geometry" />
        </mxCell>
        <mxCell id="nxcy-xcBoZWc85Fxpx_w-32" value="Netzwerk" style="rounded=0;whiteSpace=wrap;html=1;fillColor=#dae8fc;strokeColor=#6c8ebf;" vertex="1" parent="1">
          <mxGeometry x="-1450" y="560" width="120" height="60" as="geometry" />
        </mxCell>
        <mxCell id="nxcy-xcBoZWc85Fxpx_w-33" value="Social Media" style="rounded=0;whiteSpace=wrap;html=1;fillColor=#dae8fc;strokeColor=#6c8ebf;" vertex="1" parent="1">
          <mxGeometry x="-1170" y="490" width="120" height="60" as="geometry" />
        </mxCell>
        <mxCell id="nxcy-xcBoZWc85Fxpx_w-34" value="Unternehmen" style="rounded=0;whiteSpace=wrap;html=1;fillColor=#dae8fc;strokeColor=#6c8ebf;" vertex="1" parent="1">
          <mxGeometry x="-770" y="440" width="120" height="60" as="geometry" />
        </mxCell>
        <mxCell id="nxcy-xcBoZWc85Fxpx_w-35" value="Bewohner" style="rounded=0;whiteSpace=wrap;html=1;fillColor=#dae8fc;strokeColor=#6c8ebf;" vertex="1" parent="1">
          <mxGeometry x="-610" y="440" width="120" height="60" as="geometry" />
        </mxCell>
        <mxCell id="nxcy-xcBoZWc85Fxpx_w-36" value="App" style="rounded=0;whiteSpace=wrap;html=1;fillColor=#dae8fc;strokeColor=#6c8ebf;" vertex="1" parent="1">
          <mxGeometry x="-1195.5" y="1000" width="120" height="60" as="geometry" />
        </mxCell>
        <mxCell id="nxcy-xcBoZWc85Fxpx_w-37" value="Listing" style="rounded=0;whiteSpace=wrap;html=1;fillColor=#dae8fc;strokeColor=#6c8ebf;" vertex="1" parent="1">
          <mxGeometry x="-944" y="1150" width="120" height="60" as="geometry" />
        </mxCell>
        <mxCell id="nxcy-xcBoZWc85Fxpx_w-38" value="Diensleistung der Handwerker" style="rounded=0;whiteSpace=wrap;html=1;fillColor=#dae8fc;strokeColor=#6c8ebf;" vertex="1" parent="1">
          <mxGeometry x="-1890" y="1171" width="120" height="60" as="geometry" />
        </mxCell>
        <mxCell id="nxcy-xcBoZWc85Fxpx_w-39" value="Flyer" style="rounded=0;whiteSpace=wrap;html=1;fillColor=#dae8fc;strokeColor=#6c8ebf;" vertex="1" parent="1">
          <mxGeometry x="-1010" y="490" width="120" height="60" as="geometry" />
        </mxCell>
        <mxCell id="nxcy-xcBoZWc85Fxpx_w-40" value="Know-How" style="rounded=0;whiteSpace=wrap;html=1;fillColor=#dae8fc;strokeColor=#6c8ebf;" vertex="1" parent="1">
          <mxGeometry x="-2020" y="1000" width="120" height="60" as="geometry" />
        </mxCell>
        <mxCell id="nxcy-xcBoZWc85Fxpx_w-41" value="lokale Handwerker mit schlechter Onlinepäsenz" style="rounded=0;whiteSpace=wrap;html=1;fillColor=#dae8fc;strokeColor=#6c8ebf;" vertex="1" parent="1">
          <mxGeometry x="-2440" y="510" width="120" height="60" as="geometry" />
        </mxCell>
        <mxCell id="nxcy-xcBoZWc85Fxpx_w-42" value="Werbung" style="rounded=0;whiteSpace=wrap;html=1;fillColor=#dae8fc;strokeColor=#6c8ebf;" vertex="1" parent="1">
          <mxGeometry x="-790" y="1150" width="120" height="60" as="geometry" />
        </mxCell>
      </root>
    </mxGraphModel>
  </diagram>
</mxfile>
